<?xml version="1.0" standalone="no"?>
<!DOCTYPE svg PUBLIC "-//W3C//DTD SVG 20010904//EN"
 "http://www.w3.org/TR/2001/REC-SVG-20010904/DTD/svg10.dtd">
<svg version="1.0" xmlns="http://www.w3.org/2000/svg"
 width="720.000000pt" height="720.000000pt" viewBox="0 0 720.000000 720.000000"
 preserveAspectRatio="xMidYMid meet">
<metadata>
Created by potrace 1.11, written by Peter Selinger 2001-2013
</metadata>
<g transform="translate(0.000000,720.000000) scale(0.100000,-0.100000)"
fill="#000000" stroke="none">
<path d="M0 3600 l0 -3600 3600 0 3600 0 0 3600 0 3600 -3600 0 -3600 0 0
-3600z m3061 2180 c30 -6 77 -22 105 -35 217 -106 416 -486 556 -1058 l43
-177 85 -36 c205 -88 395 -191 605 -330 552 -362 845 -807 821 -1245 -16 -303
-140 -568 -421 -897 -67 -79 -70 -81 -82 -59 -6 12 -122 220 -257 462 -227
407 -244 441 -231 460 39 53 118 193 139 246 44 107 59 198 54 332 -4 109 -8
132 -39 212 -47 122 -113 217 -230 330 -125 120 -289 228 -492 325 l-157 75 0
63 c0 98 -19 250 -41 330 -38 143 -108 242 -199 284 -57 26 -161 27 -243 3
-32 -9 -60 -15 -62 -13 -2 1 -77 134 -168 293 l-164 290 29 31 c36 38 112 81
187 105 66 21 90 22 162 9z m-391 -574 l150 -268 -96 -91 c-67 -63 -117 -123
-169 -201 -155 -233 -227 -455 -256 -790 -40 -461 108 -1077 406 -1693 81
-167 85 -173 114 -173 92 0 273 59 457 149 231 113 421 238 698 459 92 74 120
92 127 81 26 -41 488 -867 491 -877 4 -16 -140 -81 -307 -138 -401 -138 -863
-200 -1226 -164 -134 13 -288 37 -364 56 -145 37 -130 27 -160 107 -105 278
-220 664 -290 975 -245 1073 -216 1932 85 2547 60 122 169 297 182 292 5 -1
75 -123 158 -271z"/>
</g>
</svg>
